<svg viewBox="0 0 760 500" xmlns="http://www.w3.org/2000/svg">
<style>
.h{font-family:'Noto Sans CJK KR','DejaVu Sans',sans-serif;font-weight:700;font-size:13px}
.t{font-family:'Noto Sans CJK KR','DejaVu Sans',sans-serif;font-weight:700;font-size:12px}
.s{font-family:'Noto Sans CJK KR','DejaVu Sans',sans-serif;font-weight:400;font-size:10.5px}
.a{font-family:'Noto Sans CJK KR','DejaVu Sans',sans-serif;font-weight:400;font-size:10px;fill:#444}
</style>
<defs><marker id="m" markerWidth="9" markerHeight="9" refX="7" refY="4.5" orient="auto"><path d="M0,0 L9,4.5 L0,9 z" fill="#555"/></marker>
<marker id="md" markerWidth="9" markerHeight="9" refX="7" refY="4.5" orient="auto"><path d="M0,0 L9,4.5 L0,9 z" fill="#8a5a00"/></marker>
<marker id="mg" markerWidth="9" markerHeight="9" refX="7" refY="4.5" orient="auto"><path d="M0,0 L9,4.5 L0,9 z" fill="#3c7a28"/></marker></defs>
<rect x="6" y="6" width="748" height="488" rx="6" fill="none" stroke="#333"/>
<text class="h" x="16" y="24" fill="#222">Kubernetes Cluster</text>

<rect x="18" y="32" width="724" height="86" rx="5" fill="#F7FAFF" stroke="#9DB6E0"/>
<text class="t" x="28" y="50" fill="#33507a">Control Plane</text>
<rect x="500" y="52" width="210" height="48" rx="5" fill="#CFE2F3" stroke="#6f9bd1"/>
<text class="t" x="605" y="80" text-anchor="middle" fill="#1f3b63">GPUCheckpoint CR</text>

<rect x="18" y="128" width="724" height="360" rx="5" fill="#FBFBFB" stroke="#B7B7B7"/>
<text class="t" x="28" y="146" fill="#444">Worker Node</text>

<rect x="34" y="158" width="236" height="150" rx="5" fill="#FFFFFF" stroke="#8a8a8a"/>
<text class="t" x="46" y="176" fill="#444">GPU Pod</text>
<rect x="48" y="184" width="208" height="34" rx="4" fill="#CFE2F3" stroke="#6f9bd1"/>
<text class="t" x="152" y="205" text-anchor="middle" fill="#1f3b63">GPU APP</text>
<rect x="48" y="226" width="208" height="70" rx="4" fill="#FFF2CC" stroke="#d6b656"/>
<text class="t" x="152" y="249" text-anchor="middle" fill="#7a5b00">GPU Selective Interceptor</text>
<text class="s" x="152" y="267" text-anchor="middle" fill="#7a5b00">VMM 소유: cudaMalloc→cuMemCreate/Map</text>
<text class="s" x="152" y="283" text-anchor="middle" fill="#7a5b00">freeze(D2H+물리해제) / remap(같은 VA)</text>

<rect x="34" y="330" width="236" height="46" rx="5" fill="#D9EAD3" stroke="#6aa84f"/>
<text class="t" x="152" y="350" text-anchor="middle" fill="#2c5320">host memory (프로세스 내)</text>
<text class="s" x="152" y="366" text-anchor="middle" fill="#2c5320">GPU 데이터 + control state</text>

<rect x="512" y="158" width="212" height="60" rx="5" fill="#F9CB9C" stroke="#cc8b53"/>
<text class="t" x="618" y="182" text-anchor="middle" fill="#6b3e12">GPU C/R Node Agent</text>
<text class="s" x="618" y="199" text-anchor="middle" fill="#6b3e12">오케스트레이터 (5단계 조율)</text>

<rect x="512" y="300" width="212" height="56" rx="5" fill="#FCE5CD" stroke="#cc8b53" stroke-dasharray="4 3"/>
<text class="t" x="618" y="322" text-anchor="middle" fill="#8a5a00">cuda-checkpoint Host Helper</text>
<text class="s" x="618" y="339" text-anchor="middle" fill="#8a5a00">＋추가 · 호스트 네이티브 실행</text>

<rect x="300" y="404" width="286" height="56" rx="5" fill="#ECECEC" stroke="#999" stroke-dasharray="4 3"/>
<text class="t" x="443" y="426" text-anchor="middle" fill="#333">kubelet · CRI-O · CRIU</text>
<text class="s" x="443" y="443" text-anchor="middle" fill="#333">＋추가 · CPU only, cuda_plugin off</text>

<text class="t" x="672" y="398" text-anchor="middle" fill="#2c5320">Shared Storage</text>
<rect x="612" y="404" width="120" height="56" rx="5" fill="#B6D7A8" stroke="#6aa84f"/>
<text class="t" x="672" y="436" text-anchor="middle" fill="#254a17">Checkpoint.tar</text>

<line x1="605" y1="100" x2="618" y2="157" stroke="#555" marker-end="url(#m)"/>
<text class="a" x="628" y="132">Watch</text>

<line x1="512" y1="188" x2="258" y2="248" stroke="#555" marker-end="url(#m)"/>
<text class="a" x="292" y="214">① freeze / ⑤ remap (control 파일)</text>

<line x1="618" y1="218" x2="618" y2="299" stroke="#555" marker-end="url(#m)"/>
<text class="a" x="626" y="262">② 요청 (.req/.res)</text>

<line x1="512" y1="332" x2="258" y2="292" stroke="#8a5a00" stroke-dasharray="4 3" marker-end="url(#md)"/>
<text class="a" x="300" y="322" fill="#8a5a00">cuda-checkpoint (GPU PID · control)</text>

<line x1="152" y1="296" x2="152" y2="329" stroke="#555" marker-end="url(#m)"/>
<text class="a" x="160" y="318">data (D2H)</text>

<line x1="540" y1="218" x2="455" y2="403" stroke="#555" marker-end="url(#m)"/>
<text class="a" x="470" y="250" text-anchor="end">③ checkpoint API</text>

<line x1="272" y1="356" x2="300" y2="418" stroke="#3c7a28" stroke-dasharray="4 3" marker-end="url(#mg)"/>
<text class="a" x="238" y="392" fill="#2c5320">CRIU가 host 메모리 캡처</text>

<line x1="586" y1="432" x2="611" y2="432" stroke="#555" marker-end="url(#m)"/>
<text class="a" x="598" y="480">④ store (tar)</text>
</svg>
