<svg viewBox="0 0 680 372" xmlns="http://www.w3.org/2000/svg">
<style>
.t{font-family:'DejaVu Sans',sans-serif;font-weight:600;font-size:14px}
.th{font-family:'DejaVu Sans',sans-serif;font-weight:600;font-size:14px}
.ts{font-family:'DejaVu Sans',sans-serif;font-weight:400;font-size:12px}
</style>
<defs>
<marker id="arw" markerWidth="9" markerHeight="9" refX="7" refY="4.5" orient="auto"><path d="M0,0 L9,4.5 L0,9 z" fill="#5F5E5A"/></marker>
</defs>
<rect x="196" y="30" width="288" height="46" rx="8" fill="#F1EFE8" stroke="#5F5E5A"/>
<text class="th" x="340" y="52" text-anchor="middle" fill="#2C2C2A">kube-apiserver / GPUCheckpoint CR</text>
<text class="ts" x="340" y="68" text-anchor="middle" fill="#444441">podRef · storage · period</text>
<line x1="340" y1="76" x2="340" y2="96" stroke="#5F5E5A" marker-end="url(#arw)"/>
<text class="ts" x="349" y="90" fill="#5F5E5A">watch</text>
<rect x="110" y="96" width="460" height="44" rx="8" fill="#EEEDFE" stroke="#534AB7"/>
<text class="th" x="340" y="117" text-anchor="middle" fill="#3C3489">GPU C/R Node Agent (DaemonSet)</text>
<text class="ts" x="340" y="132" text-anchor="middle" fill="#26215C">watches the CR, drives the 5-step pipeline on its node</text>
<line x1="340" y1="140" x2="340" y2="166" stroke="#5F5E5A" marker-end="url(#arw)"/>
<rect x="40" y="168" width="110" height="66" rx="8" fill="#EEEDFE" stroke="#534AB7"/>
<text class="th" x="95" y="192" text-anchor="middle" fill="#3C3489">1 · freeze</text>
<text class="ts" x="95" y="209" text-anchor="middle" fill="#26215C">interceptor</text>
<text class="ts" x="95" y="225" text-anchor="middle" fill="#26215C">D2H + free phys</text>
<rect x="162" y="168" width="110" height="66" rx="8" fill="#EEEDFE" stroke="#534AB7"/>
<text class="th" x="217" y="192" text-anchor="middle" fill="#3C3489">2 · control</text>
<text class="ts" x="217" y="209" text-anchor="middle" fill="#26215C">cuda-ckpt</text>
<text class="ts" x="217" y="225" text-anchor="middle" fill="#26215C">via host helper</text>
<rect x="285" y="168" width="110" height="66" rx="8" fill="#F1EFE8" stroke="#5F5E5A"/>
<text class="th" x="340" y="192" text-anchor="middle" fill="#2C2C2A">3 · dump</text>
<text class="ts" x="340" y="209" text-anchor="middle" fill="#444441">CRIU (CPU)</text>
<text class="ts" x="340" y="225" text-anchor="middle" fill="#444441">cuda_plugin off</text>
<rect x="407" y="168" width="110" height="66" rx="8" fill="#F1EFE8" stroke="#5F5E5A"/>
<text class="th" x="462" y="192" text-anchor="middle" fill="#2C2C2A">4 · store</text>
<text class="ts" x="462" y="209" text-anchor="middle" fill="#444441">kubelet API</text>
<text class="ts" x="462" y="225" text-anchor="middle" fill="#444441">tar file</text>
<rect x="530" y="168" width="110" height="66" rx="8" fill="#EEEDFE" stroke="#534AB7"/>
<text class="th" x="585" y="192" text-anchor="middle" fill="#3C3489">5 · resume</text>
<text class="ts" x="585" y="209" text-anchor="middle" fill="#26215C">remap same VA</text>
<text class="ts" x="585" y="225" text-anchor="middle" fill="#26215C">+ H2D copy</text>
<line x1="150" y1="201" x2="161" y2="201" stroke="#5F5E5A" marker-end="url(#arw)"/>
<line x1="272" y1="201" x2="284" y2="201" stroke="#5F5E5A" marker-end="url(#arw)"/>
<line x1="395" y1="201" x2="406" y2="201" stroke="#5F5E5A" marker-end="url(#arw)"/>
<line x1="517" y1="201" x2="529" y2="201" stroke="#5F5E5A" marker-end="url(#arw)"/>
<rect x="54" y="264" width="150" height="48" rx="8" fill="#E1F5EE" stroke="#0F6E56"/>
<text class="t" x="129" y="292" text-anchor="middle" fill="#04342C">GPU device</text>
<rect x="250" y="264" width="200" height="48" rx="8" fill="#E1F5EE" stroke="#0F6E56"/>
<text class="th" x="350" y="286" text-anchor="middle" fill="#04342C">host memory</text>
<text class="ts" x="350" y="302" text-anchor="middle" fill="#085041">GPU data + control state</text>
<rect x="496" y="264" width="140" height="48" rx="8" fill="#E1F5EE" stroke="#0F6E56"/>
<text class="th" x="566" y="286" text-anchor="middle" fill="#04342C">checkpoint tar</text>
<text class="ts" x="566" y="302" text-anchor="middle" fill="#085041">CPU + GPU (host)</text>
<line x1="204" y1="288" x2="249" y2="288" stroke="#5F5E5A" marker-end="url(#arw)"/>
<text class="ts" x="226" y="281" text-anchor="middle" fill="#5F5E5A">D2H</text>
<line x1="450" y1="288" x2="495" y2="288" stroke="#5F5E5A" marker-end="url(#arw)"/>
<text class="ts" x="472" y="281" text-anchor="middle" fill="#5F5E5A">CRIU</text>
</svg>
